<svg fill="none" height="32" viewBox="0 0 32 32" width="32" xmlns="http://www.w3.org/2000/svg">
  <path d="M16,24.8c-2.9,0-5.8,0-8.7,0-1.1,0-1.6-.8-1-1.8,1.7-3,3.5-6,5.2-9,1.2-2,2.3-4,3.5-6,.6-1,1.5-1,2.1,0,2.3,3.9,4.5,7.8,6.8,11.7.6,1.1,1.3,2.2,1.9,3.3.6.9,0,1.8-1,1.8-2.9,0-5.9,0-8.8,0,0,0,0,0,0,0ZM16,24.1h0c2.9,0,5.8,0,8.7,0,.7,0,.8-.2.5-.8-1.1-1.8-2.1-3.7-3.2-5.5-1.8-3.1-3.6-6.3-5.4-9.4-.4-.7-.6-.7-1,0-1.5,2.6-3,5.1-4.4,7.7-1.4,2.4-2.8,4.8-4.1,7.2-.1.2-.2.5-.1.7,0,.2.4.2.6.2,2.9,0,5.7,0,8.6,0Z" fill="currentColor" fill-rule="evenodd"/>
  <path d="M16,19.1c-.4,0-.8,0-1.1,0-.4,0-.5-.1-.5-.5,0-.3,0-.5-.3-.6-.1,0-.3-.3-.3-.4-.2-.4-.2-.8-.4-1.1-.7-1.6.3-3.3,2.1-3.7,1.9-.4,3.7,1,3.6,2.8,0,.3-.2.6-.2.9-.1.3-.2.7-.3,1,0,.2-.2.4-.3.5-.3.1-.4.3-.3.6,0,.4-.1.5-.5.5-.4,0-.8,0-1.2,0ZM17.8,16c0-.4-.3-.7-.7-.7-.3,0-.7.4-.6.7,0,.3.3.7.7.6.4,0,.7-.3.7-.7ZM14.9,15.4c-.4,0-.7.2-.7.6,0,.4.3.7.7.8.4,0,.7-.3.7-.7,0-.4-.3-.7-.7-.7ZM16.5,17.9c-.2-.3-.3-.5-.5-.8s0,0-.1,0c-.1.3-.3.5-.4.7s0,.1,0,.1h.8s0,0,0,0Z" fill="currentColor" fill-rule="evenodd"/>
  <path d="M19.9,21.4c-.2-.1-.5-.2-.7-.1-.3.1-.5.2-.7.1-.4-.1-.7-.3-1.1-.4,0,0-.1,0-.2,0,0,0,.2,0,.3-.1.4-.1.7-.3,1.1-.4.2,0,.4,0,.7.1.2,0,.5,0,.7-.1.2-.2.2-.4,0-.7,0-.1-.2-.3-.2-.5,0-.4-.3-.6-.6-.6-.3,0-.5.2-.7.5,0,.2-.3.4-.5.5-.3.1-.6.3-.9.4-.4.2-.8.3-1.2.5-.4-.2-.8-.3-1.3-.5-.3-.1-.6-.3-.9-.4-.2,0-.4-.3-.5-.5-.1-.3-.3-.5-.7-.5-.3,0-.6.2-.6.6,0,.2-.1.3-.2.5-.2.3-.2.5,0,.7.2.1.5.2.7.1.3-.1.5-.2.7-.1.4.1.7.3,1.1.4.1,0,.2.1.4.2,0,0-.2,0-.3.1-.4.1-.7.3-1.1.4-.2,0-.4,0-.7-.1-.2,0-.5,0-.7.1-.2.2-.2.4,0,.7,0,.1.2.3.2.5,0,.4.3.6.6.6.3,0,.5-.2.7-.5,0-.2.3-.4.5-.5.3-.1.6-.3.9-.4.4-.2.8-.3,1.2-.5.4.2.7.3,1.1.5.3.1.6.3.9.4.2,0,.4.3.5.5.1.3.3.5.7.5.3,0,.6-.2.6-.6,0-.2.1-.3.2-.5.2-.3.2-.5,0-.7Z" fill="currentColor"/>
</svg>