<svg width="24" height="24" viewBox="0 0 24 24" fill="none" xmlns="http://www.w3.org/2000/svg">
  <path fill-rule="evenodd" clip-rule="evenodd"
    d="M20 5.5C20 6.16304 19.7366 6.79893 19.2677 7.26777C18.7989 7.73661 18.163 8 17.5 8C16.8369 8 16.201 7.73661 15.7322 7.26777C15.2634 6.79893 15 6.16304 15 5.5C15 4.83696 15.2634 4.20107 15.7322 3.73223C16.201 3.26339 16.8369 3 17.5 3C18.163 3 18.7989 3.26339 19.2677 3.73223C19.7366 4.20107 20 4.83696 20 5.5ZM17.5 7C17.697 7 17.892 6.9612 18.074 6.88582C18.256 6.81044 18.4213 6.69995 18.5606 6.56066C18.6999 6.42137 18.8104 6.25601 18.8858 6.07403C18.9612 5.89204 19 5.69698 19 5.5C19 5.30302 18.9612 5.10796 18.8858 4.92597C18.8104 4.74399 18.6999 4.57863 18.5606 4.43934C18.4213 4.30005 18.256 4.18956 18.074 4.11418C17.892 4.0388 17.697 4 17.5 4C17.1022 4 16.7206 4.15804 16.4393 4.43934C16.158 4.72064 16 5.10218 16 5.5C16 5.89782 16.158 6.27936 16.4393 6.56066C16.7206 6.84196 17.1022 7 17.5 7ZM17.5 16C17.6326 16 17.7598 16.0527 17.8535 16.1464C17.9473 16.2402 18 16.3674 18 16.5V18H19.5C19.6326 18 19.7598 18.0527 19.8535 18.1464C19.9473 18.2402 20 18.3674 20 18.5C20 18.6326 19.9473 18.7598 19.8535 18.8536C19.7598 18.9473 19.6326 19 19.5 19H18V20.5C18 20.6326 17.9473 20.7598 17.8535 20.8536C17.7598 20.9473 17.6326 21 17.5 21C17.3674 21 17.2402 20.9473 17.1464 20.8536C17.0527 20.7598 17 20.6326 17 20.5V19H15.5C15.3674 19 15.2402 18.9473 15.1464 18.8536C15.0527 18.7598 15 18.6326 15 18.5C15 18.3674 15.0527 18.2402 15.1464 18.1464C15.2402 18.0527 15.3674 18 15.5 18H17V16.5C17 16.3674 17.0527 16.2402 17.1464 16.1464C17.2402 16.0527 17.3674 16 17.5 16ZM8.82998 5.26L7.71298 9.17L3.78698 10.3C2.08498 10.79 2.09198 13.206 3.79698 13.686L7.71398 14.789L8.82998 18.695C9.31598 20.397 11.728 20.397 12.214 18.695L13.331 14.787L17.239 13.67C18.941 13.184 18.941 10.772 17.239 10.286L13.331 9.169L12.214 5.261C11.728 3.559 9.31598 3.558 8.82998 5.26ZM4.06898 12.724C3.33198 12.516 3.32898 11.474 4.06398 11.262L8.52198 9.978L9.79198 5.535C10.002 4.8 11.042 4.8 11.252 5.535L12.522 9.978L16.964 11.247C17.699 11.457 17.699 12.499 16.964 12.709L12.522 13.978L11.252 18.42C11.042 19.155 10.002 19.155 9.79198 18.42L8.52198 13.978L4.06898 12.724Z"
    fill="currentColor" />
</svg>