<svg width="24" height="24" viewBox="0 0 24 24" fill="none" xmlns="http://www.w3.org/2000/svg">
  <path fill-rule="evenodd" clip-rule="evenodd"
    d="M18.174 14.902L18.356 14.323C18.852 12.743 18.526 10.94 16.793 9.207C16.363 8.776 15.683 8.337 14.794 7.913C13.917 7.493 12.89 7.113 11.812 6.773C9.78499 6.137 7.63799 5.669 6.07799 5.371L10.984 10.276C11.4032 10.0285 11.8982 9.94246 12.3763 10.0339C12.8544 10.1253 13.2827 10.3879 13.5811 10.7725C13.8794 11.1572 14.0272 11.6374 13.9968 12.1232C13.9664 12.609 13.7599 13.0671 13.4159 13.4115C13.072 13.7559 12.6142 13.9631 12.1284 13.9942C11.6427 14.0253 11.1622 13.8782 10.7772 13.5804C10.3921 13.2826 10.1289 12.8546 10.0368 12.3766C9.94474 11.8987 10.0301 11.4035 10.277 10.984L5.37199 6.078C5.66899 7.638 6.13799 9.785 6.77399 11.811C7.46899 14.024 8.30599 15.891 9.20699 16.793C10.941 18.526 12.744 18.852 14.324 18.355L14.903 18.174L15.331 18.602L16.728 20L20 16.727L18.603 15.33L18.174 14.902ZM19.31 14.622L20.707 16.02C20.8 16.1129 20.8737 16.2232 20.924 16.3446C20.9744 16.466 21.0003 16.5961 21.0003 16.7275C21.0003 16.8589 20.9744 16.989 20.924 17.1104C20.8737 17.2318 20.8 17.3421 20.707 17.435L17.435 20.706C17.2475 20.8935 16.9932 20.9988 16.728 20.9988C16.4628 20.9988 16.2085 20.8935 16.021 20.706L14.624 19.309C12.65 19.929 10.467 19.467 8.49999 17.499C6.31599 15.316 4.92699 9.157 4.33299 5.968C4.28807 5.74364 4.29923 5.51166 4.36548 5.29266C4.43173 5.07365 4.55102 4.87438 4.71276 4.71254C4.8745 4.55069 5.0737 4.43128 5.29267 4.3649C5.51163 4.29852 5.7436 4.28721 5.96799 4.332C9.15799 4.927 15.316 6.316 17.5 8.499C19.467 10.466 19.93 12.649 19.31 14.623V14.622ZM12.707 12.707C12.7999 12.6142 12.8736 12.5039 12.9239 12.3826C12.9742 12.2613 13.0001 12.1312 13.0002 11.9999C13.0002 11.8685 12.9744 11.7384 12.9242 11.6171C12.874 11.4957 12.8003 11.3854 12.7075 11.2925C12.6146 11.1996 12.5044 11.1259 12.3831 11.0756C12.2617 11.0253 12.1317 10.9993 12.0003 10.9993C11.869 10.9992 11.7389 11.0251 11.6176 11.0753C11.4962 11.1255 11.3859 11.1992 11.293 11.292C11.1053 11.4795 10.9999 11.7339 10.9998 11.9991C10.9997 12.2644 11.105 12.5189 11.2925 12.7065C11.48 12.8941 11.7344 12.9996 11.9996 12.9997C12.2649 12.9998 12.5193 12.8945 12.707 12.707Z"
    fill="currentColor" />
</svg>