<svg width="24" height="24" viewBox="0 0 24 24" fill="none" xmlns="http://www.w3.org/2000/svg">
  <path fill-rule="evenodd" clip-rule="evenodd"
    d="M5 6.5C5 6.10218 5.15804 5.72064 5.43934 5.43934C5.72064 5.15804 6.10218 5 6.5 5H17.5C17.8978 5 18.2794 5.15804 18.5607 5.43934C18.842 5.72064 19 6.10218 19 6.5V17.5C19 17.8978 18.842 18.2794 18.5607 18.5607C18.2794 18.842 17.8978 19 17.5 19H15.5C15.3674 19 15.2402 19.0527 15.1464 19.1464C15.0527 19.2402 15 19.3674 15 19.5C15 19.6326 15.0527 19.7598 15.1464 19.8536C15.2402 19.9473 15.3674 20 15.5 20H17.5C18.163 20 18.7989 19.7366 19.2678 19.2678C19.7366 18.7989 20 18.163 20 17.5V6.5C20 5.83696 19.7366 5.20107 19.2678 4.73223C18.7989 4.26339 18.163 4 17.5 4H6.5C5.83696 4 5.20107 4.26339 4.73223 4.73223C4.26339 5.20107 4 5.83696 4 6.5V8.5C4 8.63261 4.05268 8.75979 4.14645 8.85355C4.24021 8.94732 4.36739 9 4.5 9C4.63261 9 4.75979 8.94732 4.85355 8.85355C4.94732 8.75979 5 8.63261 5 8.5V6.5ZM11 8.5C11 8.36739 11.0527 8.24021 11.1464 8.14645C11.2402 8.05268 11.3674 8 11.5 8H15.5C15.6326 8 15.7598 8.05268 15.8536 8.14645C15.9473 8.24021 16 8.36739 16 8.5V12.5C16 12.6326 15.9473 12.7598 15.8536 12.8536C15.7598 12.9473 15.6326 13 15.5 13C15.3674 13 15.2402 12.9473 15.1464 12.8536C15.0527 12.7598 15 12.6326 15 12.5V9.707L8.854 15.854C8.76011 15.9479 8.63278 16.0006 8.5 16.0006C8.36722 16.0006 8.23989 15.9479 8.146 15.854C8.05211 15.7601 7.99937 15.6328 7.99937 15.5C7.99937 15.3672 8.05211 15.2399 8.146 15.146L14.293 9H11.5C11.3674 9 11.2402 8.94732 11.1464 8.85355C11.0527 8.75979 11 8.63261 11 8.5ZM4 11.5C4 11.1022 4.15804 10.7206 4.43934 10.4393C4.72064 10.158 5.10218 10 5.5 10H10.5C10.6326 10 10.7598 10.0527 10.8536 10.1464C10.9473 10.2402 11 10.3674 11 10.5C11 10.6326 10.9473 10.7598 10.8536 10.8536C10.7598 10.9473 10.6326 11 10.5 11H5.5C5.36739 11 5.24021 11.0527 5.14645 11.1464C5.05268 11.2402 5 11.3674 5 11.5V18.5C5 18.6326 5.05268 18.7598 5.14645 18.8536C5.24021 18.9473 5.36739 19 5.5 19H12.5C12.6326 19 12.7598 18.9473 12.8536 18.8536C12.9473 18.7598 13 18.6326 13 18.5V13.5C13 13.3674 13.0527 13.2402 13.1464 13.1464C13.2402 13.0527 13.3674 13 13.5 13C13.6326 13 13.7598 13.0527 13.8536 13.1464C13.9473 13.2402 14 13.3674 14 13.5V18.5C14 18.8978 13.842 19.2794 13.5607 19.5607C13.2794 19.842 12.8978 20 12.5 20H5.5C5.10218 20 4.72064 19.842 4.43934 19.5607C4.15804 19.2794 4 18.8978 4 18.5V11.5Z"
    fill="currentColor" />
</svg>