<svg width="24" height="24" viewBox="0 0 24 24" fill="none" xmlns="http://www.w3.org/2000/svg">
  <path
    d="M11.784 3.875C11.806 3.83723 11.8375 3.80589 11.8754 3.78411C11.9133 3.76233 11.9563 3.75087 12 3.75087C12.0437 3.75087 12.0866 3.76233 12.1245 3.78411C12.1624 3.80589 12.194 3.83723 12.216 3.875L20.444 18.125C20.4659 18.163 20.4775 18.2062 20.4775 18.2501C20.4775 18.294 20.4659 18.3372 20.4439 18.3752C20.4219 18.4132 20.3902 18.4448 20.3522 18.4667C20.3141 18.4886 20.2709 18.5001 20.227 18.5H3.77299C3.72906 18.5001 3.68589 18.4886 3.64781 18.4667C3.60974 18.4448 3.57811 18.4132 3.55611 18.3752C3.53411 18.3372 3.52251 18.294 3.52249 18.2501C3.52247 18.2062 3.53402 18.163 3.55599 18.125L11.783 3.875H11.784Z"
    stroke="currentColor" />
</svg>