<svg width="25" height="24" viewBox="0 0 25 24" fill="none" xmlns="http://www.w3.org/2000/svg">
<path fill-rule="evenodd" clip-rule="evenodd" d="M5.75195 5.12598H5.25195V5.62598V18.374V18.874H5.75195H18.5H19V18.374V5.62598V5.12598H18.5H5.75195ZM6.25195 17.874V6.12598H18V17.874H6.25195ZM10.0764 12C10.0764 10.868 10.994 9.9504 12.126 9.9504C13.2579 9.9504 14.1756 10.868 14.1756 12C14.1756 13.132 13.2579 14.0496 12.126 14.0496C10.994 14.0496 10.0764 13.132 10.0764 12ZM12.126 8.9504C10.4417 8.9504 9.07635 10.3158 9.07635 12C9.07635 13.6843 10.4417 15.0496 12.126 15.0496C13.8102 15.0496 15.1756 13.6843 15.1756 12C15.1756 10.3158 13.8102 8.9504 12.126 8.9504Z" fill="black" fill-opacity="0.9"/>
</svg>
