<svg width="17" height="16" viewBox="0 0 17 16" fill="none" xmlns="http://www.w3.org/2000/svg">
<path fill-rule="evenodd" clip-rule="evenodd" d="M4.40906 2.95459H3.90906V3.45459V12.5455V13.0455H4.40906H13.5H14V12.5455V3.45459V2.95459H13.5H4.40906ZM4.90906 12.0455V3.95459H13V12.0455H4.90906ZM7.63632 8.00004C7.63632 7.27203 8.22649 6.68186 8.9545 6.68186C9.68252 6.68186 10.2727 7.27203 10.2727 8.00004C10.2727 8.72806 9.68252 9.31823 8.9545 9.31823C8.22649 9.31823 7.63632 8.72806 7.63632 8.00004ZM8.9545 5.68186C7.67421 5.68186 6.63632 6.71975 6.63632 8.00004C6.63632 9.28034 7.67421 10.3182 8.9545 10.3182C10.2348 10.3182 11.2727 9.28034 11.2727 8.00004C11.2727 6.71975 10.2348 5.68186 8.9545 5.68186Z" fill="currentColor" fill-opacity="0.9"/>
</svg>
