<svg width="25" height="24" viewBox="0 0 25 24" fill="none" xmlns="http://www.w3.org/2000/svg">
<path fill-rule="evenodd" clip-rule="evenodd" d="M5.25 12C5.25 15.7969 8.32804 18.875 12.125 18.875C12.825 18.875 13.4708 18.7462 13.9959 18.3961C14.5519 18.0255 14.8308 17.5027 14.9553 17.0045C15.071 16.542 15.0606 16.0753 15.0415 15.732C15.032 15.5609 15.0217 15.4269 15.0127 15.3112C14.9997 15.1429 14.9896 15.0132 14.9896 14.8646C14.9896 14.1817 15.5942 13.6638 16.1354 13.6638C17.1135 13.6638 17.8818 13.1919 18.3645 12.4992C18.8197 11.8462 19 11.0389 19 10.2812C19 8.66593 18.0885 7.34499 16.8273 6.47388C15.5707 5.60583 13.9025 5.125 12.125 5.125C8.32804 5.125 5.25 8.20304 5.25 12ZM12.125 17.7292C8.96087 17.7292 6.39583 15.1642 6.39583 12C6.39583 8.83587 8.96087 6.27083 12.125 6.27083C15.2892 6.27083 17.8542 7.98958 17.8542 10.2812C17.8542 11.4666 17.2812 12.518 16.1354 12.518C14.9896 12.518 13.8438 13.5212 13.8438 14.8646C13.8438 15.0505 13.8588 15.2515 13.8743 15.4578C13.9543 16.5229 14.0448 17.7292 12.125 17.7292ZM11.8385 9.80317C12.4713 9.80317 12.9843 9.29016 12.9843 8.65733C12.9843 8.02451 12.4713 7.5115 11.8385 7.5115C11.2057 7.5115 10.6927 8.02451 10.6927 8.65733C10.6927 9.29016 11.2057 9.80317 11.8385 9.80317ZM16.4222 9.80317C16.4222 10.436 15.9092 10.949 15.2763 10.949C14.6435 10.949 14.1305 10.436 14.1305 9.80317C14.1305 9.17034 14.6435 8.65733 15.2763 8.65733C15.9092 8.65733 16.4222 9.17034 16.4222 9.80317ZM8.97396 12.0489C9.60678 12.0489 10.1198 11.5359 10.1198 10.9031C10.1198 10.2702 9.60678 9.75725 8.97396 9.75725C8.34113 9.75725 7.82812 10.2702 7.82812 10.9031C7.82812 11.5359 8.34113 12.0489 8.97396 12.0489Z" fill="black" fill-opacity="0.9"/>
</svg>
