<svg width="16" height="16" viewBox="0 0 16 16" fill="none" xmlns="http://www.w3.org/2000/svg">
<path fill-rule="evenodd" clip-rule="evenodd" d="M3 8C3 10.7614 5.23858 13 8 13C8.50909 13 8.97879 12.9063 9.36067 12.6517C9.76503 12.3822 9.96788 12.0019 10.0584 11.6396C10.1425 11.3033 10.135 10.9639 10.1211 10.7142C10.1142 10.5898 10.1067 10.4923 10.1001 10.4081C10.0907 10.2858 10.0833 10.1915 10.0833 10.0833C10.0833 9.58673 10.5231 9.21006 10.9167 9.21006C11.628 9.21006 12.1868 8.86685 12.5378 8.36309C12.8689 7.88812 13 7.30103 13 6.75C13 5.57522 12.3371 4.61454 11.4199 3.98101C10.5059 3.34969 9.29273 3 8 3C5.23858 3 3 5.23858 3 8ZM8 12.1667C5.69881 12.1667 3.83333 10.3012 3.83333 8C3.83333 5.69881 5.69881 3.83333 8 3.83333C10.3012 3.83333 12.1667 5.08333 12.1667 6.75C12.1667 7.61206 11.75 8.37673 10.9167 8.37673C10.0833 8.37673 9.25 9.1063 9.25 10.0833C9.25 10.2185 9.26097 10.3647 9.27224 10.5148C9.33036 11.2894 9.39618 12.1667 8 12.1667ZM7.79164 6.4023C8.25188 6.4023 8.62497 6.02921 8.62497 5.56897C8.62497 5.10873 8.25188 4.73564 7.79164 4.73564C7.33146 4.73564 6.9583 5.10873 6.9583 5.56897C6.9583 6.02921 7.33146 6.4023 7.79164 6.4023ZM11.1252 6.4023C11.1252 6.86255 10.7521 7.23564 10.2919 7.23564C9.83164 7.23564 9.45855 6.86255 9.45855 6.4023C9.45855 5.94207 9.83164 5.56897 10.2919 5.56897C10.7521 5.56897 11.1252 5.94207 11.1252 6.4023ZM5.70833 8.03558C6.16857 8.03558 6.54164 7.66248 6.54164 7.20224C6.54164 6.742 6.16857 6.36891 5.70833 6.36891C5.2481 6.36891 4.875 6.742 4.875 7.20224C4.875 7.66248 5.2481 8.03558 5.70833 8.03558Z" fill="currentColor" fill-opacity="0.9"/>
</svg>
