<svg width="16" height="16" viewBox="0 0 16 16" fill="none" xmlns="http://www.w3.org/2000/svg">
<path d="M8.33333 3H7.66667V5H8.33333V3Z" fill="currentColor" fill-opacity="0.9"/>
<path d="M4.70021 4.22877L4.2288 4.70017L5.64302 6.11438L6.11442 5.64298L4.70021 4.22877Z" fill="currentColor" fill-opacity="0.9"/>
<path d="M11.7713 4.70017L11.2999 4.22877L9.88569 5.64298L10.3571 6.11439L11.7713 4.70017Z" fill="currentColor" fill-opacity="0.9"/>
<path d="M3 7.66667V8.33333H5V7.66667H3Z" fill="currentColor" fill-opacity="0.9"/>
<path d="M11 7.66667V8.33333H13V7.66667H11Z" fill="currentColor" fill-opacity="0.9"/>
<path d="M6.11441 10.357L5.643 9.88562L4.22879 11.2998L4.7002 11.7712L6.11441 10.357Z" fill="currentColor" fill-opacity="0.9"/>
<path d="M10.3569 9.88562L9.88554 10.357L11.2998 11.7712L11.7712 11.2998L10.3569 9.88562Z" fill="currentColor" fill-opacity="0.9"/>
<path d="M8.33333 11H7.66667V13H8.33333V11Z" fill="currentColor" fill-opacity="0.9"/>
<path fill-rule="evenodd" clip-rule="evenodd" d="M9.6652 7.99862C9.6652 8.91909 8.91901 9.66528 7.99854 9.66528C7.07806 9.66528 6.33187 8.91909 6.33187 7.99862C6.33187 7.07814 7.07806 6.33195 7.99854 6.33195C8.91901 6.33195 9.6652 7.07814 9.6652 7.99862ZM8.99854 7.99862C8.99854 8.5509 8.55082 8.99862 7.99854 8.99862C7.44625 8.99862 6.99854 8.5509 6.99854 7.99862C6.99854 7.44633 7.44625 6.99862 7.99854 6.99862C8.55082 6.99862 8.99854 7.44633 8.99854 7.99862Z" fill="currentColor" fill-opacity="0.9"/>
</svg>
