<svg width="25" height="24" viewBox="0 0 25 24" fill="none" xmlns="http://www.w3.org/2000/svg">
<path d="M12.5833 5.125H11.6667V7.875H12.5833V5.125Z" fill="black" fill-opacity="0.9"/>
<path d="M7.58778 6.81455L6.9396 7.46273L8.88415 9.40728L9.53233 8.7591L7.58778 6.81455Z" fill="black" fill-opacity="0.9"/>
<path d="M17.3106 7.46274L16.6624 6.81455L14.7178 8.7591L15.366 9.40728L17.3106 7.46274Z" fill="black" fill-opacity="0.9"/>
<path d="M5.25 11.5417V12.4583H8V11.5417H5.25Z" fill="black" fill-opacity="0.9"/>
<path d="M16.25 11.5417V12.4583H19V11.5417H16.25Z" fill="black" fill-opacity="0.9"/>
<path d="M9.53231 15.2409L8.88413 14.5927L6.93959 16.5373L7.58777 17.1855L9.53231 15.2409Z" fill="black" fill-opacity="0.9"/>
<path d="M15.3658 14.5927L14.7176 15.2409L16.6622 17.1855L17.3103 16.5373L15.3658 14.5927Z" fill="black" fill-opacity="0.9"/>
<path d="M12.5833 16.125H11.6667V18.875H12.5833V16.125Z" fill="black" fill-opacity="0.9"/>
<path fill-rule="evenodd" clip-rule="evenodd" d="M14.4147 11.9981C14.4147 13.2638 13.3886 14.2898 12.123 14.2898C10.8573 14.2898 9.83132 13.2638 9.83132 11.9981C9.83132 10.7324 10.8573 9.70643 12.123 9.70643C13.3886 9.70643 14.4147 10.7324 14.4147 11.9981ZM13.498 11.9981C13.498 12.7575 12.8824 13.3731 12.123 13.3731C11.3636 13.3731 10.748 12.7575 10.748 11.9981C10.748 11.2387 11.3636 10.6231 12.123 10.6231C12.8824 10.6231 13.498 11.2387 13.498 11.9981Z" fill="black" fill-opacity="0.9"/>
</svg>
