<svg width="24" height="24" fill="none" viewBox="0 0 24 24">
  <path fill="currentColor" fill-rule="evenodd"
    d="m11.677 6.59 4.732 4.733a.25.25 0 0 1 0 .354l-4.732 4.732a.25.25 0 0 1-.354 0l-3.262-3.263a.5.5 0 1 0-.707.707l3.262 3.263a1.25 1.25 0 0 0 1.768 0l4.732-4.732a1.25 1.25 0 0 0 0-1.768l-4.732-4.732a1.25 1.25 0 0 0-1.768 0L7.354 9.146a.5.5 0 1 0 .707.707l3.262-3.262a.25.25 0 0 1 .354 0M10.085 12a1.5 1.5 0 1 0 0-1H5.5a.5.5 0 0 0 0 1zm1.415-1a.5.5 0 1 1 0 1 .5.5 0 0 1 0-1"
    clip-rule="evenodd"></path>
</svg>