<svg width="24" height="24" viewBox="0 0 24 24" fill="none" xmlns="http://www.w3.org/2000/svg">
<path d="M9.70833 5.125V18.875M8.79167 5.125H15.2083C16.4918 5.125 17.1335 5.125 17.6237 5.37478C18.0549 5.59449 18.4055 5.94507 18.6252 6.37627C18.875 6.86649 18.875 7.50821 18.875 8.79167V15.2083C18.875 16.4918 18.875 17.1335 18.6252 17.6237C18.4055 18.0549 18.0549 18.4055 17.6237 18.6252C17.1335 18.875 16.4918 18.875 15.2083 18.875H8.79167C7.50821 18.875 6.86649 18.875 6.37627 18.6252C5.94507 18.4055 5.59449 18.0549 5.37478 17.6237C5.125 17.1335 5.125 16.4918 5.125 15.2083V8.79167C5.125 7.50821 5.125 6.86649 5.37478 6.37627C5.59449 5.94507 5.94507 5.59449 6.37627 5.37478C6.86649 5.125 7.50821 5.125 8.79167 5.125Z" stroke="currentColor" stroke-width="1.1" stroke-linecap="round" stroke-linejoin="round"/>
</svg>
