<svg width="24" height="24" viewBox="0 0 24 24" fill="none" xmlns="http://www.w3.org/2000/svg">
<g clip-path="url(#clip0_1009796_14104)">
<path d="M12.5729 9.13542H8.10415C7.46242 9.13542 7.14156 9.13542 6.89645 9.26031C6.68085 9.37016 6.50556 9.54545 6.3957 9.76105C6.27081 10.0062 6.27081 10.327 6.27081 10.9688V13.0313C6.27081 13.673 6.27081 13.9938 6.3957 14.2389C6.50556 14.4546 6.68085 14.6298 6.89645 14.7397C7.14156 14.8646 7.46242 14.8646 8.10415 14.8646H12.5729M14.8646 9.13542H15.8958C16.5375 9.13542 16.8584 9.13542 17.1035 9.26031C17.3191 9.37016 17.4944 9.54545 17.6043 9.76105C17.7291 10.0062 17.7291 10.327 17.7291 10.9688V13.0313C17.7291 13.673 17.7291 13.9938 17.6043 14.2389C17.4944 14.4546 17.3191 14.6298 17.1035 14.7397C16.8584 14.8646 16.5375 14.8646 15.8958 14.8646H14.8646M14.8646 17.1563L14.8646 6.84375M16.2969 6.84375L13.4323 6.84375M16.2969 17.1563L13.4323 17.1563" stroke="#171717" stroke-width="1.1" stroke-linecap="round" stroke-linejoin="round"/>
</g>
<defs>
<clipPath id="clip0_1009796_14104">
<rect width="13.75" height="13.75" fill="white" transform="translate(5.125 5.125)"/>
</clipPath>
</defs>
</svg>
