<svg width="24" height="24" viewBox="0 0 24 24" fill="none" xmlns="http://www.w3.org/2000/svg">
<path fill-rule="evenodd" clip-rule="evenodd" d="M7.41667 6.27083H16.5833C16.8872 6.27083 17.1787 6.39155 17.3936 6.60644C17.6084 6.82133 17.7292 7.11277 17.7292 7.41667V16.5833C17.7292 16.8872 17.6084 17.1787 17.3936 17.3936C17.1787 17.6084 16.8872 17.7292 16.5833 17.7292H7.41667C7.11277 17.7292 6.82133 17.6084 6.60644 17.3936C6.39155 17.1787 6.27083 16.8872 6.27083 16.5833V7.41667C6.27083 7.11277 6.39155 6.82133 6.60644 6.60644C6.82133 6.39155 7.11277 6.27083 7.41667 6.27083ZM5.125 7.41667C5.125 6.80888 5.36644 6.22598 5.79621 5.79621C6.22598 5.36644 6.80888 5.125 7.41667 5.125H16.5833C17.1911 5.125 17.774 5.36644 18.2038 5.79621C18.6336 6.22598 18.875 6.80888 18.875 7.41667V16.5833C18.875 17.1911 18.6336 17.774 18.2038 18.2038C17.774 18.6336 17.1911 18.875 16.5833 18.875H7.41667C6.80888 18.875 6.22598 18.6336 5.79621 18.2038C5.36644 17.774 5.125 17.1911 5.125 16.5833V7.41667ZM9.13542 8.5625C8.98347 8.5625 8.83775 8.62286 8.7303 8.7303C8.62286 8.83775 8.5625 8.98347 8.5625 9.13542V10.2812C8.5625 10.4332 8.62286 10.5789 8.7303 10.6864C8.83775 10.7938 8.98347 10.8542 9.13542 10.8542C9.28736 10.8542 9.43309 10.7938 9.54053 10.6864C9.64797 10.5789 9.70833 10.4332 9.70833 10.2812V9.70833H11.4271V14.2917H10.8542C10.7022 14.2917 10.5565 14.352 10.4491 14.4595C10.3416 14.5669 10.2812 14.7126 10.2812 14.8646C10.2812 15.0165 10.3416 15.1623 10.4491 15.2697C10.5565 15.3771 10.7022 15.4375 10.8542 15.4375H13.1458C13.2978 15.4375 13.4435 15.3771 13.5509 15.2697C13.6584 15.1623 13.7188 15.0165 13.7188 14.8646C13.7188 14.7126 13.6584 14.5669 13.5509 14.4595C13.4435 14.352 13.2978 14.2917 13.1458 14.2917H12.5729V9.70833H14.2917V10.2812C14.2917 10.4332 14.352 10.5789 14.4595 10.6864C14.5669 10.7938 14.7126 10.8542 14.8646 10.8542C15.0165 10.8542 15.1623 10.7938 15.2697 10.6864C15.3771 10.5789 15.4375 10.4332 15.4375 10.2812V9.13542C15.4375 8.98347 15.3771 8.83775 15.2697 8.7303C15.1623 8.62286 15.0165 8.5625 14.8646 8.5625H9.13542Z" fill="currentColor"/>
</svg>
