<svg width="16" height="16" viewBox="0 0 16 16" fill="none" xmlns="http://www.w3.org/2000/svg">
<path fill-rule="evenodd" clip-rule="evenodd" d="M4.66667 3.83333H11.3333C11.5543 3.83333 11.7663 3.92113 11.9226 4.07741C12.0789 4.23369 12.1667 4.44565 12.1667 4.66667V11.3333C12.1667 11.5543 12.0789 11.7663 11.9226 11.9226C11.7663 12.0789 11.5543 12.1667 11.3333 12.1667H4.66667C4.44565 12.1667 4.23369 12.0789 4.07741 11.9226C3.92113 11.7663 3.83333 11.5543 3.83333 11.3333V4.66667C3.83333 4.44565 3.92113 4.23369 4.07741 4.07741C4.23369 3.92113 4.44565 3.83333 4.66667 3.83333ZM3 4.66667C3 4.22464 3.17559 3.80072 3.48816 3.48816C3.80072 3.17559 4.22464 3 4.66667 3H11.3333C11.7754 3 12.1993 3.17559 12.5118 3.48816C12.8244 3.80072 13 4.22464 13 4.66667V11.3333C13 11.7754 12.8244 12.1993 12.5118 12.5118C12.1993 12.8244 11.7754 13 11.3333 13H4.66667C4.22464 13 3.80072 12.8244 3.48816 12.5118C3.17559 12.1993 3 11.7754 3 11.3333V4.66667ZM5.91667 5.5C5.80616 5.5 5.70018 5.5439 5.62204 5.62204C5.5439 5.70018 5.5 5.80616 5.5 5.91667V6.75C5.5 6.86051 5.5439 6.96649 5.62204 7.04463C5.70018 7.12277 5.80616 7.16667 5.91667 7.16667C6.02717 7.16667 6.13315 7.12277 6.21129 7.04463C6.28943 6.96649 6.33333 6.86051 6.33333 6.75V6.33333H7.58333V9.66667H7.16667C7.05616 9.66667 6.95018 9.71056 6.87204 9.7887C6.7939 9.86685 6.75 9.97283 6.75 10.0833C6.75 10.1938 6.7939 10.2998 6.87204 10.378C6.95018 10.4561 7.05616 10.5 7.16667 10.5H8.83333C8.94384 10.5 9.04982 10.4561 9.12796 10.378C9.2061 10.2998 9.25 10.1938 9.25 10.0833C9.25 9.97283 9.2061 9.86685 9.12796 9.7887C9.04982 9.71056 8.94384 9.66667 8.83333 9.66667H8.41667V6.33333H9.66667V6.75C9.66667 6.86051 9.71056 6.96649 9.7887 7.04463C9.86685 7.12277 9.97283 7.16667 10.0833 7.16667C10.1938 7.16667 10.2998 7.12277 10.378 7.04463C10.4561 6.96649 10.5 6.86051 10.5 6.75V5.91667C10.5 5.80616 10.4561 5.70018 10.378 5.62204C10.2998 5.5439 10.1938 5.5 10.0833 5.5H5.91667Z" fill="black"/>
</svg>
