<svg width="16" height="16" viewBox="0 0 16 16" fill="none" xmlns="http://www.w3.org/2000/svg">
<g clip-path="url(#clip0_1009796_14102)">
<rect width="10" height="10" transform="translate(3 3)" fill="white"/>
<path d="M8.41665 5.91667H5.16665C4.69994 5.91667 4.46658 5.91667 4.28832 6.00749C4.13152 6.08739 4.00404 6.21487 3.92414 6.37167C3.83331 6.54993 3.83331 6.78329 3.83331 7.25V8.75C3.83331 9.21671 3.83331 9.45007 3.92414 9.62833C4.00404 9.78513 4.13152 9.91261 4.28832 9.99251C4.46658 10.0833 4.69994 10.0833 5.16665 10.0833H8.41665M10.0833 5.91667H10.8333C11.3 5.91667 11.5334 5.91667 11.7116 6.00749C11.8684 6.08739 11.9959 6.21487 12.0758 6.37167C12.1666 6.54993 12.1666 6.78329 12.1666 7.25V8.75C12.1666 9.21671 12.1666 9.45007 12.0758 9.62833C11.9959 9.78513 11.8684 9.91261 11.7116 9.99251C11.5334 10.0833 11.3 10.0833 10.8333 10.0833H10.0833M10.0833 11.75L10.0833 4.25M11.125 4.25L9.04165 4.25M11.125 11.75L9.04165 11.75" stroke="black" stroke-opacity="0.9" stroke-width="0.9" stroke-linecap="round" stroke-linejoin="round"/>
</g>
<defs>
<clipPath id="clip0_1009796_14102">
<rect width="10" height="10" fill="white" transform="translate(3 3)"/>
</clipPath>
</defs>
</svg>
