<svg width="24" height="24" viewBox="0 0 24 24" fill="none" xmlns="http://www.w3.org/2000/svg">
  <path fill-rule="evenodd" clip-rule="evenodd"
    d="M3.29303 7.793C3.10556 7.98053 3.00024 8.23484 3.00024 8.5C3.00024 8.76516 3.10556 9.01947 3.29303 9.207L14.793 20.707C14.9806 20.8945 15.2349 20.9998 15.5 20.9998C15.7652 20.9998 16.0195 20.8945 16.207 20.707L20.707 16.207C20.8945 16.0195 20.9998 15.7652 20.9998 15.5C20.9998 15.2348 20.8945 14.9805 20.707 14.793L9.20703 3.293C9.0195 3.10553 8.76519 3.00021 8.50003 3.00021C8.23487 3.00021 7.98056 3.10553 7.79303 3.293L3.29303 7.793ZM4.00003 8.5L4.70703 9.207L5.39703 9.897L6.14703 9.147C6.19315 9.09925 6.24833 9.06115 6.30933 9.03495C6.37033 9.00874 6.43594 8.99495 6.50233 8.99438C6.56872 8.9938 6.63456 9.00645 6.69601 9.03159C6.75746 9.05673 6.81328 9.09386 6.86023 9.1408C6.90717 9.18775 6.9443 9.24358 6.96944 9.30502C6.99458 9.36647 7.00723 9.43231 7.00666 9.4987C7.00608 9.56509 6.99229 9.6307 6.96608 9.6917C6.93988 9.7527 6.90179 9.80788 6.85403 9.854L6.10403 10.604L7.39603 11.896L9.64603 9.646C9.73992 9.55211 9.86725 9.49937 10 9.49937C10.1328 9.49937 10.2601 9.55211 10.354 9.646C10.4479 9.73989 10.5007 9.86722 10.5007 10C10.5007 10.1328 10.4479 10.2601 10.354 10.354L8.10403 12.604L9.39603 13.896L10.146 13.146C10.2399 13.0521 10.3673 12.9994 10.5 12.9994C10.6328 12.9994 10.7601 13.0521 10.854 13.146C10.9479 13.2399 11.0007 13.3672 11.0007 13.5C11.0007 13.6328 10.9479 13.7601 10.854 13.854L10.104 14.604L11.396 15.896L13.646 13.646C13.7399 13.5521 13.8673 13.4994 14 13.4994C14.1328 13.4994 14.2601 13.5521 14.354 13.646C14.4479 13.7399 14.5007 13.8672 14.5007 14C14.5007 14.1328 14.4479 14.2601 14.354 14.354L12.104 16.604L14.793 19.293L15.5 20L16.207 19.293L19.293 16.207L20 15.5L19.293 14.793L9.20703 4.707L8.50003 4L7.79303 4.707L4.70703 7.793L4.00003 8.5ZM16 17C16.2652 17 16.5196 16.8946 16.7071 16.7071C16.8947 16.5196 17 16.2652 17 16C17 15.7348 16.8947 15.4804 16.7071 15.2929C16.5196 15.1054 16.2652 15 16 15C15.7348 15 15.4805 15.1054 15.2929 15.2929C15.1054 15.4804 15 15.7348 15 16C15 16.2652 15.1054 16.5196 15.2929 16.7071C15.4805 16.8946 15.7348 17 16 17Z"
    fill="currentColor" />
</svg>