<svg width="24" height="24" viewBox="0 0 24 24" fill="none" xmlns="http://www.w3.org/2000/svg">
  <mask id="mask0_4_1071" style="mask-type:luminance" maskUnits="userSpaceOnUse" x="4" y="4"
    width="17" height="17">
    <path d="M4 4H21V21H4V4Z" fill="currentColor" />
    <path fill-rule="evenodd" clip-rule="evenodd"
      d="M19.294 12.063C19.4924 12.0022 19.6669 11.8811 19.7934 11.7166C19.92 11.5522 19.9922 11.3524 20.0001 11.1451C20.008 10.9377 19.9512 10.733 19.8376 10.5594C19.724 10.3858 19.5592 10.2518 19.366 10.176L6.36599 5.06899C6.18473 4.99756 5.98654 4.98064 5.79579 5.0203C5.60503 5.05996 5.43002 5.15448 5.29225 5.29225C5.15448 5.43002 5.05996 5.60503 5.0203 5.79579C4.98064 5.98654 4.99756 6.18473 5.06899 6.36599L10.176 19.366C10.2518 19.5592 10.3858 19.724 10.5594 19.8376C10.733 19.9512 10.9377 20.008 11.1451 20.0001C11.3524 19.9922 11.5522 19.92 11.7166 19.7934C11.8811 19.6669 12.0022 19.4924 12.063 19.294L13.764 13.764L19.294 12.063Z"
      fill="currentColor" />
  </mask>
  <g mask="url(#mask0_4_1071)">
    <path
      d="M13.764 13.764L13.47 12.809C13.3143 12.857 13.1727 12.9423 13.0575 13.0575C12.9423 13.1727 12.857 13.3143 12.809 13.47L13.764 13.764ZM19 11.107L19.588 13.019C19.9844 12.8969 20.333 12.6547 20.5856 12.3257C20.8382 11.9968 20.9824 11.5975 20.998 11.183L19 11.107ZM19 11.107L20.999 11.183C21.0146 10.7685 20.9009 10.3594 20.6738 10.0124C20.4466 9.66534 20.1171 9.39752 19.731 9.246L19 11.107ZM6 6L19 11.107L19.731 9.246L6.731 4.139L6 6ZM6 6L6.731 4.139C6.36874 3.99672 5.97285 3.96323 5.59184 4.04263C5.21083 4.12203 4.86127 4.31087 4.586 4.586L6 6ZM6 6L4.586 4.586C4.3107 4.86116 4.12167 5.21067 4.04209 5.59168C3.96251 5.9727 3.99685 6.36865 4.139 6.731L6 6ZM11.107 19L6 6L4.139 6.731L9.246 19.731L11.107 19ZM11.107 19L9.246 19.731C9.39735 20.1173 9.66511 20.447 10.0122 20.6743C10.3592 20.9017 10.7684 21.0155 11.183 21L11.107 19ZM11.107 19L11.183 21C11.5975 20.9844 11.9968 20.8392 12.3257 20.5866C12.6547 20.334 12.8969 19.9854 13.019 19.589L11.107 19ZM12.809 13.47L11.107 19L13.019 19.588L14.72 14.058L12.809 13.47ZM19 11.107L13.47 12.809L14.058 14.72L19.588 13.019L19 11.107Z"
      fill="currentColor" />
  </g>
</svg>