<svg width="24" height="24" viewBox="0 0 24 24" fill="none" xmlns="http://www.w3.org/2000/svg">
  <path
    d="M14.526 9.158L14.64 9.5H20.84C20.9462 9.50013 21.0496 9.53406 21.1352 9.5969C21.2208 9.65973 21.2842 9.74819 21.3162 9.84946C21.3481 9.95073 21.347 10.0595 21.313 10.1601C21.279 10.2608 21.2139 10.3479 21.127 10.409L16.296 13.806L15.992 14.02L16.109 14.372L18.038 20.182C18.0711 20.2826 18.0714 20.3911 18.0389 20.4918C18.0064 20.5926 17.9428 20.6804 17.8571 20.7427C17.7715 20.805 17.6683 20.8385 17.5624 20.8383C17.4566 20.8382 17.3535 20.8045 17.268 20.742L12.296 17.097L12 16.88L11.704 17.097L6.73299 20.743C6.64751 20.8055 6.5444 20.8392 6.43852 20.8393C6.33264 20.8395 6.22945 20.806 6.14382 20.7437C6.05819 20.6814 5.99455 20.5936 5.96205 20.4928C5.92955 20.3921 5.92988 20.2836 5.96299 20.183L7.89099 14.373L8.00799 14.02L7.70399 13.806L2.87399 10.409C2.78718 10.348 2.72205 10.2609 2.68801 10.1604C2.65398 10.0599 2.65279 9.95115 2.68464 9.84993C2.71649 9.74871 2.77971 9.66025 2.86517 9.59734C2.95062 9.53443 3.05387 9.50034 3.15999 9.5H9.35998L9.47399 9.158L11.526 3.004C11.5593 2.90469 11.623 2.81836 11.7081 2.7572C11.7931 2.69604 11.8952 2.66313 12 2.66313C12.1047 2.66313 12.2069 2.69604 12.2919 2.7572C12.377 2.81836 12.4406 2.90469 12.474 3.004L14.526 9.158Z"
    stroke="currentColor" />
</svg>