<svg width="24" height="24" viewBox="0 0 24 24" fill="none" xmlns="http://www.w3.org/2000/svg">
  <path
    d="M4.5 12C4.5 10.5166 4.93987 9.0666 5.76398 7.83323C6.58809 6.59986 7.75943 5.63856 9.12987 5.07091C10.5003 4.50325 12.0083 4.35472 13.4632 4.64411C14.918 4.9335 16.2544 5.64781 17.3033 6.6967C18.3522 7.7456 19.0665 9.08197 19.3559 10.5368C19.6453 11.9917 19.4968 13.4997 18.9291 14.8701C18.3614 16.2406 17.4001 17.4119 16.1668 18.236C14.9334 19.0601 13.4834 19.5 12 19.5H7.2C6.632 19.5 6.236 19.5 5.927 19.474C5.625 19.45 5.451 19.404 5.319 19.337C5.03651 19.1932 4.80685 18.9635 4.663 18.681C4.596 18.549 4.55 18.375 4.526 18.073C4.5 17.765 4.5 17.368 4.5 16.8V12Z"
    stroke="currentColor" />
</svg>