<svg width="24" height="24" viewBox="0 0 24 24" fill="none" xmlns="http://www.w3.org/2000/svg">
  <path fill-rule="evenodd" clip-rule="evenodd"
    d="M3.00798 4.124C2.98916 3.97295 3.00506 3.81959 3.05449 3.67561C3.10392 3.53164 3.18556 3.40085 3.2932 3.29321C3.40084 3.18558 3.53163 3.10393 3.6756 3.05451C3.81957 3.00508 3.97293 2.98917 4.12398 3.008L8.12398 3.508C8.34459 3.53555 8.54973 3.63583 8.70698 3.793L20.5 15.586C20.8749 15.9611 21.0856 16.4697 21.0856 17C21.0856 17.5303 20.8749 18.0389 20.5 18.414L18.414 20.5C18.0389 20.8749 17.5303 21.0856 17 21.0856C16.4697 21.0856 15.961 20.8749 15.586 20.5L3.79298 8.707C3.63582 8.54975 3.53553 8.34461 3.50798 8.124L3.00798 4.124ZM3.99998 4L4.12798 5.024L4.49998 8L13.646 17.146L17.146 13.646L7.99998 4.5L5.02398 4.128L3.99998 4ZM17.854 14.354L14.354 17.854L16.293 19.793C16.4805 19.9805 16.7348 20.0858 17 20.0858C17.2651 20.0858 17.5195 19.9805 17.707 19.793L19.793 17.707C19.9805 17.5195 20.0858 17.2652 20.0858 17C20.0858 16.7348 19.9805 16.4805 19.793 16.293L17.853 14.353L17.854 14.354Z"
    fill="currentColor" />
</svg>