<svg width="24" height="24" viewBox="0 0 24 24" fill="none" xmlns="http://www.w3.org/2000/svg">
  <path fill-rule="evenodd" clip-rule="evenodd"
    d="M12.997 8.62H13V10C13 10.1326 13.0527 10.2598 13.1465 10.3536C13.2402 10.4473 13.3674 10.5 13.5 10.5C13.6326 10.5 13.7598 10.4473 13.8536 10.3536C13.9473 10.2598 14 10.1326 14 10V5.923C14.02 5.6653 14.139 5.42536 14.3321 5.25349C14.5251 5.08162 14.7773 4.99119 15.0355 5.00115C15.2938 5.0111 15.5382 5.12069 15.7175 5.30691C15.8967 5.49313 15.9969 5.74153 15.997 6V8.62H16V10C16 10.1326 16.0527 10.2598 16.1465 10.3536C16.2402 10.4473 16.3674 10.5 16.5 10.5C16.6326 10.5 16.7598 10.4473 16.8536 10.3536C16.9473 10.2598 17 10.1326 17 10V8C17 7.73479 17.1054 7.48043 17.2929 7.2929C17.4804 7.10536 17.7348 7 18 7C18.2652 7 18.5196 7.10536 18.7071 7.2929C18.8947 7.48043 19 7.73479 19 8V8.62H19.01V13.363C19.0103 13.4109 19.0069 13.4587 19 13.506C18.9968 13.5292 18.9945 13.5526 18.993 13.576C18.8701 15.2839 18.105 16.8818 16.8515 18.0482C15.598 19.2147 13.9493 19.8631 12.237 19.863C12.075 19.863 11.918 19.859 11.767 19.853C10.232 19.783 8.88201 19.067 7.66001 17.933C6.43001 16.792 5.38001 15.273 4.47201 13.714C4.18301 13.219 3.98601 12.834 3.91701 12.521C3.89271 12.4355 3.88725 12.3458 3.90101 12.258C3.90801 12.229 3.92301 12.187 3.98801 12.123C4.05309 12.0536 4.13441 12.0014 4.22466 11.9712C4.31491 11.941 4.41125 11.9337 4.50501 11.95C4.72901 11.98 5.02301 12.115 5.31201 12.384L5.31301 12.386L6.31301 13.331C6.45502 13.4653 6.63325 13.555 6.82568 13.589C7.01811 13.6231 7.2163 13.6 7.39577 13.5227C7.57524 13.4454 7.72811 13.3171 7.8355 13.1539C7.94288 12.9906 8.00008 12.7994 8.00001 12.604V6C8.00001 5.73479 8.10537 5.48043 8.2929 5.2929C8.48044 5.10536 8.7348 5 9.00001 5C9.26523 5 9.51958 5.10536 9.70712 5.2929C9.89465 5.48043 10 5.73479 10 6V10C10 10.1326 10.0527 10.2598 10.1465 10.3536C10.2402 10.4473 10.3674 10.5 10.5 10.5C10.6326 10.5 10.7598 10.4473 10.8536 10.3536C10.9473 10.2598 11 10.1326 11 10V5C11 4.73479 11.1054 4.48043 11.2929 4.2929C11.4804 4.10536 11.7348 4 12 4C12.2652 4 12.5196 4.10536 12.7071 4.2929C12.8947 4.48043 13 4.73479 13 5V5.89C12.998 5.92664 12.997 5.96332 12.997 6V8.62ZM7.00001 8.5V6C7.00008 5.63777 7.09852 5.28235 7.28483 4.97171C7.47114 4.66106 7.73831 4.40684 8.05783 4.2362C8.37736 4.06555 8.73722 3.98489 9.09901 4.00282C9.4608 4.02075 9.81093 4.1366 10.112 4.338C10.2489 3.94669 10.504 3.60758 10.842 3.36758C11.18 3.12758 11.5842 2.99854 11.9988 2.99832C12.4134 2.9981 12.8177 3.12671 13.156 3.36635C13.4943 3.606 13.7497 3.94484 13.887 4.336C14.1882 4.13504 14.5383 4.01963 14.9 4.00206C15.2616 3.98449 15.6213 4.06544 15.9405 4.23625C16.2598 4.40707 16.5267 4.66136 16.7128 4.97198C16.8988 5.28261 16.9971 5.63792 16.997 6V6.27C17.301 6.09381 17.646 6.00079 17.9973 6.00032C18.3487 5.99985 18.6939 6.09194 18.9984 6.26732C19.3028 6.44271 19.5557 6.69519 19.7315 6.99936C19.9073 7.30354 20 7.64866 20 8V8.5H20.01V13.363C20.01 13.459 20.003 13.554 19.99 13.647C19.8492 15.6071 18.9712 17.441 17.5328 18.7799C16.0943 20.1187 14.2021 20.863 12.237 20.863C12.06 20.863 11.888 20.859 11.721 20.851C8.03901 20.684 5.46501 17.402 3.60801 14.218C3.04301 13.249 2.49801 12.175 3.29201 11.405C4.08501 10.636 5.19001 10.901 5.99701 11.655L6.00001 11.66L7.00001 12.605V8.5Z"
    fill="currentColor" />
</svg>