<svg width="16" height="16" viewBox="0 0 16 16" fill="none" xmlns="http://www.w3.org/2000/svg">
<path d="M8.43426 8H8.43679M3.86853 5.94108V10.0589C3.86853 10.2327 3.86853 10.3197 3.89414 10.3972C3.9168 10.4657 3.95384 10.5287 4.00278 10.5818C4.0581 10.6418 4.13408 10.684 4.28603 10.7685L8.04007 12.854C8.18394 12.934 8.25588 12.9739 8.33206 12.9896C8.39949 13.0035 8.46903 13.0035 8.53645 12.9896C8.61264 12.9739 8.68457 12.934 8.82845 12.854L12.5825 10.7685C12.7344 10.684 12.8104 10.6418 12.8657 10.5818C12.9147 10.5287 12.9517 10.4657 12.9744 10.3972C13 10.3197 13 10.2327 13 10.0589V5.94108C13 5.76726 13 5.68035 12.9744 5.60283C12.9517 5.53426 12.9147 5.47131 12.8657 5.4182C12.8104 5.35817 12.7344 5.31596 12.5825 5.23154L8.82845 3.14596C8.68457 3.06603 8.61264 3.02607 8.53645 3.0104C8.46903 2.99653 8.39949 2.99653 8.33206 3.0104C8.25588 3.02607 8.18394 3.06603 8.04007 3.14596L4.28603 5.23154C4.13408 5.31596 4.0581 5.35817 4.00278 5.4182C3.95384 5.47131 3.9168 5.53426 3.89414 5.60283C3.86853 5.68035 3.86853 5.76726 3.86853 5.94108ZM8.11719 7.68294V7.68294C7.94208 7.85805 7.94208 8.14195 8.11719 8.31706V8.31706C8.2923 8.49217 8.57621 8.49217 8.75132 8.31706V8.31706C8.92643 8.14195 8.92643 7.85805 8.75132 7.68294V7.68294C8.57621 7.50783 8.2923 7.50783 8.11719 7.68294Z" stroke="currentColor" stroke-width="0.9" stroke-linecap="round" stroke-linejoin="round"/>
</svg>
