<svg width="16" height="16" viewBox="0 0 16 16" fill="none" xmlns="http://www.w3.org/2000/svg">
<path d="M10.125 3L13.9961 5.21208C14.1797 5.31694 14.2714 5.36937 14.3382 5.44305C14.3972 5.50823 14.4419 5.58515 14.4692 5.66877C14.5 5.76328 14.5 5.86896 14.5 6.08032V9.91968C14.5 10.131 14.5 10.2367 14.4692 10.3312C14.4419 10.4148 14.3972 10.4918 14.3382 10.557C14.2714 10.6306 14.1797 10.6831 13.9961 10.7879L10.125 13M6.375 8H6.37813M2 6.08032V9.91968C2 10.131 2 10.2367 2.03085 10.3312C2.05814 10.4148 2.10278 10.4918 2.16184 10.557C2.22859 10.6306 2.32035 10.6831 2.50386 10.7879L5.87886 12.7165C6.0597 12.8198 6.15012 12.8715 6.24614 12.8917C6.33111 12.9096 6.41888 12.9096 6.50386 12.8917C6.59988 12.8715 6.6903 12.8198 6.87114 12.7165L10.2461 10.7879C10.4297 10.6831 10.5214 10.6306 10.5882 10.557C10.6472 10.4918 10.6919 10.4148 10.7192 10.3312C10.75 10.2367 10.75 10.131 10.75 9.91968V6.08032C10.75 5.86896 10.75 5.76328 10.7192 5.66877C10.6919 5.58515 10.6472 5.50823 10.5882 5.44305C10.5214 5.36937 10.4297 5.31694 10.2461 5.21208L6.87114 3.28351C6.6903 3.18017 6.59988 3.1285 6.50386 3.10827C6.41888 3.09037 6.33111 3.09037 6.24614 3.10827C6.15012 3.1285 6.0597 3.18017 5.87886 3.28351L2.50386 5.21208C2.32035 5.31694 2.22859 5.36937 2.16184 5.44305C2.10278 5.50823 2.05814 5.58515 2.03085 5.66877C2 5.76328 2 5.86896 2 6.08032ZM5.98438 7.60938V7.60938C5.76864 7.82511 5.76864 8.17489 5.98438 8.39062V8.39062C6.20011 8.60636 6.54989 8.60636 6.76562 8.39062V8.39062C6.98136 8.17489 6.98136 7.82511 6.76562 7.60938V7.60938C6.54989 7.39364 6.20011 7.39364 5.98438 7.60938Z" stroke="#171717" stroke-width="0.9" stroke-linecap="round" stroke-linejoin="round"/>
</svg>
