<svg width="25" height="24" viewBox="0 0 25 24" fill="none" xmlns="http://www.w3.org/2000/svg">
<path d="M12.125 12H12.1285M5.84711 9.16899V14.831C5.84711 15.07 5.84711 15.1895 5.88232 15.2961C5.91348 15.3904 5.9644 15.477 6.0317 15.55C6.10777 15.6325 6.21223 15.6906 6.42116 15.8066L11.583 18.6743C11.7808 18.7842 11.8797 18.8392 11.9845 18.8607C12.0772 18.8798 12.1728 18.8798 12.2655 18.8607C12.3703 18.8392 12.4692 18.7842 12.667 18.6743L17.8288 15.8066C18.0377 15.6906 18.1422 15.6325 18.2183 15.55C18.2856 15.477 18.3365 15.3904 18.3676 15.2961C18.4029 15.1895 18.4029 15.07 18.4029 14.831V9.16899C18.4029 8.92998 18.4029 8.81048 18.3676 8.70389C18.3365 8.6096 18.2856 8.52305 18.2183 8.45002C18.1422 8.36748 18.0377 8.30944 17.8288 8.19337L12.667 5.3257C12.4692 5.2158 12.3703 5.16084 12.2655 5.1393C12.1728 5.12023 12.0772 5.12023 11.9845 5.1393C11.8797 5.16084 11.7808 5.2158 11.583 5.3257L6.42116 8.19337C6.21223 8.30944 6.10777 8.36748 6.0317 8.45002C5.9644 8.52305 5.91348 8.6096 5.88232 8.70389C5.84711 8.81048 5.84711 8.92998 5.84711 9.16899ZM11.689 11.564V11.564C11.4482 11.8048 11.4482 12.1952 11.689 12.436V12.436C11.9298 12.6767 12.3202 12.6767 12.5609 12.436V12.436C12.8017 12.1952 12.8017 11.8048 12.5609 11.564V11.564C12.3202 11.3233 11.9298 11.3233 11.689 11.564Z" stroke="#171717" stroke-width="1.1" stroke-linecap="round" stroke-linejoin="round"/>
</svg>
