<svg width="24" height="24" viewBox="0 0 24 24" fill="none" xmlns="http://www.w3.org/2000/svg">
<path d="M14.7031 5.125L20.0259 8.16661C20.2783 8.3108 20.4044 8.38289 20.4962 8.48419C20.5774 8.57382 20.6388 8.67958 20.6763 8.79456C20.7187 8.92451 20.7188 9.06982 20.7188 9.36044V14.6396C20.7188 14.9302 20.7187 15.0755 20.6763 15.2054C20.6388 15.3204 20.5774 15.4262 20.4962 15.5158C20.4044 15.6171 20.2783 15.6892 20.0259 15.8334L14.7031 18.875M9.54688 12H9.55117M3.53125 9.36044V14.6396C3.53125 14.9302 3.53125 15.0755 3.57367 15.2054C3.61119 15.3204 3.67257 15.4262 3.75378 15.5158C3.84557 15.6171 3.97173 15.6892 4.22406 15.8334L8.86468 18.4852C9.11334 18.6273 9.23766 18.6983 9.3697 18.7261C9.48653 18.7507 9.60722 18.7507 9.72405 18.7261C9.85609 18.6983 9.98041 18.6273 10.2291 18.4852L14.8697 15.8334C15.122 15.6892 15.2482 15.6171 15.34 15.5158C15.4212 15.4262 15.4826 15.3204 15.5201 15.2054C15.5625 15.0755 15.5625 14.9302 15.5625 14.6396V9.36044C15.5625 9.06982 15.5625 8.92451 15.5201 8.79456C15.4826 8.67958 15.4212 8.57382 15.34 8.48419C15.2482 8.38289 15.122 8.3108 14.8697 8.16661L10.2291 5.51482C9.98041 5.37274 9.85609 5.30169 9.72405 5.27387C9.60722 5.24926 9.48653 5.24926 9.3697 5.27387C9.23766 5.30169 9.11334 5.37274 8.86468 5.51482L4.22406 8.16661C3.97173 8.3108 3.84557 8.38289 3.75378 8.48419C3.67257 8.57382 3.61119 8.67958 3.57367 8.79456C3.53125 8.92451 3.53125 9.06982 3.53125 9.36044ZM9.00977 11.4629V11.4629C8.71313 11.7595 8.71313 12.2405 9.00977 12.5371V12.5371C9.3064 12.8337 9.78735 12.8337 10.084 12.5371V12.5371C10.3806 12.2405 10.3806 11.7595 10.084 11.4629V11.4629C9.78735 11.1663 9.3064 11.1663 9.00977 11.4629Z" stroke="currentColor" stroke-width="1.1" stroke-linecap="round" stroke-linejoin="round"/>
</svg>
