<svg width="16" height="16" viewBox="0 0 16 16" fill="none" xmlns="http://www.w3.org/2000/svg">
<path fill-rule="evenodd" clip-rule="evenodd" d="M9.23202 10.4749C9.13826 10.5687 9.01111 10.6213 8.87852 10.6213C8.74594 10.6213 8.61879 10.5687 8.52502 10.4749L6.40402 8.35395L6.05002 7.99994L6.40402 7.64594L8.52502 5.52594C8.6199 5.4385 8.7449 5.39112 8.87389 5.3937C9.00289 5.39628 9.1259 5.44862 9.2172 5.53979C9.30849 5.63096 9.36102 5.75389 9.36378 5.88289C9.36654 6.01188 9.31933 6.13695 9.23202 6.23195L7.46402 7.99994L9.23202 9.76794C9.32576 9.86171 9.37842 9.98886 9.37842 10.1214C9.37842 10.254 9.32576 10.3812 9.23202 10.4749Z" fill="currentColor"/>
</svg>
