<svg width="16" height="16" viewBox="0 0 16 16" fill="none" xmlns="http://www.w3.org/2000/svg">
<path d="M6.33333 3V13M5.66667 3H10.3333C11.2668 3 11.7335 3 12.09 3.18166C12.4036 3.34144 12.6586 3.59641 12.8183 3.91002C13 4.26654 13 4.73325 13 5.66667V10.3333C13 11.2668 13 11.7335 12.8183 12.09C12.6586 12.4036 12.4036 12.6586 12.09 12.8183C11.7335 13 11.2668 13 10.3333 13H5.66667C4.73325 13 4.26654 13 3.91002 12.8183C3.59641 12.6586 3.34144 12.4036 3.18166 12.09C3 11.7335 3 11.2668 3 10.3333V5.66667C3 4.73325 3 4.26654 3.18166 3.91002C3.34144 3.59641 3.59641 3.34144 3.91002 3.18166C4.26654 3 4.73325 3 5.66667 3Z" stroke="currentColor" stroke-width="1.1" stroke-linecap="round" stroke-linejoin="round"/>
</svg>
